<?xml version="1.0" encoding="UTF-8" standalone="no"?>
<!DOCTYPE svg PUBLIC "-//W3C//DTD SVG 1.1//EN" "http://www.w3.org/Graphics/SVG/1.1/DTD/svg11.dtd">
<svg width="100%" height="100%" viewBox="0 0 1080 1080" version="1.1" xmlns="http://www.w3.org/2000/svg" xmlns:xlink="http://www.w3.org/1999/xlink" xml:space="preserve" xmlns:serif="http://www.serif.com/" style="fill-rule:evenodd;clip-rule:evenodd;stroke-linecap:round;stroke-linejoin:round;stroke-miterlimit:1.5;">
    <g>
        <g transform="matrix(1.08696,0,0,1.08696,-41.8034,-34.2134)">
            <circle cx="535.256" cy="528.273" r="459.997" style="fill:none;stroke:black;stroke-width:10.14px;"/>
        </g>
        <path d="M542.328,61.712c-0,952.759 -0,948.104 -0,948.104" style="fill:none;stroke:black;stroke-width:11.03px;"/>
        <g transform="matrix(0.866025,-0.5,0.5,0.866025,-195.224,342.943)">
            <path d="M542.328,61.712c-0,952.759 -0,948.104 -0,948.104" style="fill:none;stroke:black;stroke-width:11.03px;"/>
        </g>
        <g transform="matrix(0.5,-0.866025,0.866025,0.5,-192.821,737.551)">
            <path d="M542.328,61.712c-0,952.759 -0,948.104 -0,948.104" style="fill:none;stroke:black;stroke-width:11.03px;"/>
        </g>
        <g transform="matrix(1.66533e-16,-1,1,1.66533e-16,6.56356,1078.09)">
            <path d="M542.328,61.712c-0,952.759 -0,948.104 -0,948.104" style="fill:none;stroke:black;stroke-width:11.03px;"/>
        </g>
        <g transform="matrix(-0.5,-0.866025,0.866025,-0.5,349.506,1273.32)">
            <path d="M542.328,61.712c-0,952.759 -0,948.104 -0,948.104" style="fill:none;stroke:black;stroke-width:11.03px;"/>
        </g>
        <g transform="matrix(-0.866025,-0.5,0.5,-0.866025,744.115,1270.91)">
            <path d="M542.328,61.712c-0,952.759 -0,948.104 -0,948.104" style="fill:none;stroke:black;stroke-width:11.03px;"/>
        </g>
        <g transform="matrix(1.22109,0,0,1.22562,-195.179,-131.859)">
            <circle cx="602.069" cy="548.178" r="342.155" style="fill:white;"/>
        </g>
        <g transform="matrix(1,0,0,1,-1.93965,47.2965)">
            <circle cx="541.94" cy="492.703" r="25.991" style="stroke:white;stroke-width:11.03px;"/>
        </g>
    </g>
    <g id="minuteHand" transform="matrix(0.976431,0,0,1.01458,-7.72727,-12.5947)">
        <rect x="458.534" y="12.414" width="204.828" height="1064.48" style="fill:none;"/>
        <g transform="matrix(0.970589,0,-5.38785e-17,0.788506,-274.929,129.498)">
            <path d="M887.5,508.609l0.086,-0l-0.072,0.254l0.072,1.297l-0.439,0l-25.94,91.552l-25.94,-91.552l-0.439,0l0.072,-1.297l-0.072,-0.254l0.086,-0l26.293,-473.276l26.293,473.276Z" style="stroke:black;stroke-width:12.57px;"/>
        </g>
    </g>
    <g id="hourHand" transform="matrix(0.976431,0,0,1.01458,-7.72727,-12.5947)">
        <rect x="458.534" y="12.414" width="204.828" height="1064.48" style="fill:none;"/>
        <g transform="matrix(0.970589,0,-5.38785e-17,0.507668,-274.929,283.187)">
            <path d="M887.5,508.609l0.086,-0l-0.072,0.254l0.072,1.297l-0.439,0l-25.94,91.552l-25.94,-91.552l-0.439,0l0.072,-1.297l-0.072,-0.254l0.086,-0l26.293,-473.276l26.293,473.276Z" style="stroke:black;stroke-width:14.46px;"/>
        </g>
    </g>
</svg>
